<svg width="44" height="44" viewBox="0 0 44 44" fill="none" xmlns="http://www.w3.org/2000/svg">
<path d="M22.3237 0.970581C10.4521 0.970581 0.82373 10.5972 0.82373 22.4706C0.82373 31.97 6.98348 40.0289 15.5279 42.8723C16.6011 43.0712 16.9487 42.4047 16.9487 41.8385V37.8359C10.9681 39.1367 9.72294 35.2989 9.72294 35.2989C8.74469 32.8139 7.33465 32.1527 7.33465 32.1527C5.38352 30.818 7.48336 30.8466 7.48336 30.8466C9.64231 30.9971 10.7782 33.0629 10.7782 33.0629C12.6953 36.3488 15.8074 35.3992 17.0347 34.8492C17.2264 33.4607 17.7836 32.5111 18.4 31.9754C13.6252 31.4289 8.60494 29.5853 8.60494 21.349C8.60494 19.0001 9.44523 17.083 10.8194 15.578C10.5973 15.0352 9.8609 12.8475 11.0291 9.88771C11.0291 9.88771 12.8351 9.31079 16.9434 12.0915C18.658 11.6149 20.4962 11.3766 22.3237 11.3676C24.1512 11.3766 25.9913 11.6149 27.7095 12.0915C31.8142 9.31079 33.6166 9.88771 33.6166 9.88771C34.7866 12.8493 34.0502 15.037 33.828 15.578C35.2076 17.083 36.0407 19.0019 36.0407 21.349C36.0407 29.6068 31.0115 31.4253 26.2242 31.9575C26.9946 32.624 27.6987 33.9319 27.6987 35.9385V41.8385C27.6987 42.41 28.0427 43.0819 29.1339 42.8705C37.6711 40.0235 43.8237 31.9664 43.8237 22.4706C43.8237 10.5972 34.1971 0.970581 22.3237 0.970581Z" fill="#4D4D2C"/>
</svg>
