<svg width="133" height="26" viewBox="0 0 133 26" fill="none" xmlns="http://www.w3.org/2000/svg">
<path d="M26.464 1.688V25H21.696V11.592C21.696 11.2827 21.7013 10.9467 21.712 10.584C21.7333 10.2213 21.7653 9.85333 21.808 9.48L15.616 21.464C15.424 21.8373 15.1627 22.12 14.832 22.312C14.512 22.504 14.144 22.6 13.728 22.6H12.992C12.576 22.6 12.2027 22.504 11.872 22.312C11.552 22.12 11.296 21.8373 11.104 21.464L4.912 9.448C4.944 9.832 4.97067 10.2107 4.992 10.584C5.01333 10.9467 5.024 11.2827 5.024 11.592V25H0.256V1.688H4.384C4.61867 1.688 4.82133 1.69333 4.992 1.704C5.17333 1.71467 5.33333 1.74667 5.472 1.8C5.61067 1.85333 5.73333 1.93867 5.84 2.056C5.95733 2.16267 6.06933 2.31733 6.176 2.52L12.176 14.344C12.3893 14.7493 12.592 15.1707 12.784 15.608C12.9867 16.0453 13.1787 16.4933 13.36 16.952C13.5413 16.4827 13.728 16.024 13.92 15.576C14.1227 15.128 14.336 14.7013 14.56 14.296L20.544 2.52C20.6507 2.31733 20.7573 2.16267 20.864 2.056C20.9813 1.93867 21.1093 1.85333 21.248 1.8C21.3867 1.74667 21.5413 1.71467 21.712 1.704C21.8933 1.69333 22.1013 1.688 22.336 1.688H26.464ZM37.5468 8.152C38.8054 8.152 39.9521 8.34933 40.9868 8.744C42.0214 9.13867 42.9068 9.704 43.6428 10.44C44.3894 11.176 44.9654 12.072 45.3708 13.128C45.7868 14.1733 45.9948 15.352 45.9948 16.664C45.9948 17.9867 45.7868 19.1813 45.3708 20.248C44.9654 21.304 44.3894 22.2053 43.6428 22.952C42.9068 23.688 42.0214 24.2587 40.9868 24.664C39.9521 25.0587 38.8054 25.256 37.5468 25.256C36.2774 25.256 35.1201 25.0587 34.0748 24.664C33.0401 24.2587 32.1441 23.688 31.3868 22.952C30.6401 22.2053 30.0588 21.304 29.6428 20.248C29.2374 19.1813 29.0348 17.9867 29.0348 16.664C29.0348 15.352 29.2374 14.1733 29.6428 13.128C30.0588 12.072 30.6401 11.176 31.3868 10.44C32.1441 9.704 33.0401 9.13867 34.0748 8.744C35.1201 8.34933 36.2774 8.152 37.5468 8.152ZM37.5468 21.576C38.6881 21.576 39.5254 21.176 40.0588 20.376C40.6028 19.5653 40.8748 18.3387 40.8748 16.696C40.8748 15.0533 40.6028 13.832 40.0588 13.032C39.5254 12.232 38.6881 11.832 37.5468 11.832C36.3734 11.832 35.5148 12.232 34.9708 13.032C34.4268 13.832 34.1548 15.0533 34.1548 16.696C34.1548 18.3387 34.4268 19.5653 34.9708 20.376C35.5148 21.176 36.3734 21.576 37.5468 21.576ZM53.0685 10.2C53.3885 9.90133 53.7192 9.624 54.0605 9.368C54.4018 9.112 54.7645 8.89867 55.1485 8.728C55.5432 8.54667 55.9645 8.408 56.4125 8.312C56.8712 8.20533 57.3672 8.152 57.9005 8.152C58.8072 8.152 59.6072 8.312 60.3005 8.632C61.0045 8.94133 61.5965 9.37867 62.0765 9.944C62.5565 10.4987 62.9192 11.1653 63.1645 11.944C63.4098 12.712 63.5325 13.5493 63.5325 14.456V25H58.5725V14.456C58.5725 13.6453 58.3858 13.016 58.0125 12.568C57.6392 12.1093 57.0898 11.88 56.3645 11.88C55.8205 11.88 55.3085 11.9973 54.8285 12.232C54.3592 12.456 53.9005 12.7653 53.4525 13.16V25H48.4925V8.408H51.5645C52.1832 8.408 52.5885 8.68533 52.7805 9.24L53.0685 10.2ZM72.4598 25.256C71.6704 25.256 70.9718 25.144 70.3638 24.92C69.7664 24.6853 69.2598 24.36 68.8438 23.944C68.4384 23.5173 68.1291 23.0053 67.9158 22.408C67.7024 21.8107 67.5958 21.144 67.5958 20.408V11.832H66.1878C65.9318 11.832 65.7131 11.752 65.5318 11.592C65.3504 11.4213 65.2598 11.176 65.2598 10.856V8.92L67.8998 8.408L68.8758 4.36C69.0038 3.848 69.3664 3.592 69.9638 3.592H72.5558V8.44H76.6678V11.832H72.5558V20.072C72.5558 20.456 72.6464 20.776 72.8278 21.032C73.0198 21.2773 73.2918 21.4 73.6438 21.4C73.8251 21.4 73.9744 21.384 74.0918 21.352C74.2198 21.3093 74.3264 21.2667 74.4118 21.224C74.5078 21.1707 74.5931 21.128 74.6678 21.096C74.7531 21.0533 74.8491 21.032 74.9558 21.032C75.1051 21.032 75.2224 21.0693 75.3078 21.144C75.4038 21.208 75.4998 21.3147 75.5958 21.464L77.0998 23.816C76.4598 24.296 75.7398 24.6587 74.9398 24.904C74.1398 25.1387 73.3131 25.256 72.4598 25.256ZM88.9688 14.712C88.9688 14.3173 88.9154 13.9333 88.8088 13.56C88.7128 13.1867 88.5474 12.856 88.3128 12.568C88.0888 12.2693 87.7901 12.0293 87.4168 11.848C87.0434 11.6667 86.5901 11.576 86.0568 11.576C85.1181 11.576 84.3821 11.848 83.8488 12.392C83.3154 12.9253 82.9634 13.6987 82.7928 14.712H88.9688ZM82.7288 17.592C82.8888 18.9787 83.3101 19.9867 83.9928 20.616C84.6754 21.2347 85.5554 21.544 86.6328 21.544C87.2088 21.544 87.7048 21.4747 88.1208 21.336C88.5368 21.1973 88.9048 21.0427 89.2248 20.872C89.5554 20.7013 89.8541 20.5467 90.1208 20.408C90.3981 20.2693 90.6861 20.2 90.9848 20.2C91.3794 20.2 91.6781 20.344 91.8808 20.632L93.3208 22.408C92.8088 22.9947 92.2541 23.4747 91.6568 23.848C91.0701 24.2107 90.4621 24.4987 89.8328 24.712C89.2141 24.9147 88.5901 25.0533 87.9608 25.128C87.3421 25.2133 86.7501 25.256 86.1848 25.256C85.0221 25.256 83.9288 25.0693 82.9048 24.696C81.8914 24.312 81.0008 23.7467 80.2328 23C79.4754 22.2533 78.8728 21.3253 78.4248 20.216C77.9874 19.1067 77.7688 17.816 77.7688 16.344C77.7688 15.2347 77.9554 14.184 78.3288 13.192C78.7128 12.2 79.2568 11.3307 79.9608 10.584C80.6754 9.83733 81.5341 9.24533 82.5368 8.808C83.5501 8.37067 84.6914 8.152 85.9608 8.152C87.0594 8.152 88.0621 8.32267 88.9688 8.664C89.8861 9.00533 90.6701 9.50133 91.3208 10.152C91.9821 10.8027 92.4941 11.6027 92.8568 12.552C93.2301 13.4907 93.4167 14.5573 93.4167 15.752C93.4167 16.1253 93.4008 16.4293 93.3688 16.664C93.3368 16.8987 93.2781 17.0853 93.1928 17.224C93.1074 17.3627 92.9901 17.4587 92.8408 17.512C92.7021 17.5653 92.5208 17.592 92.2968 17.592H82.7288ZM100.971 8.408V25H96.0108V8.408H100.971ZM101.483 3.864C101.483 4.25867 101.403 4.632 101.243 4.984C101.083 5.32533 100.864 5.62933 100.587 5.896C100.309 6.152 99.9841 6.36 99.6108 6.52C99.2481 6.66933 98.8588 6.744 98.4427 6.744C98.0374 6.744 97.6588 6.66933 97.3068 6.52C96.9548 6.36 96.6401 6.152 96.3628 5.896C96.0961 5.62933 95.8828 5.32533 95.7228 4.984C95.5734 4.632 95.4988 4.25867 95.4988 3.864C95.4988 3.45867 95.5734 3.08 95.7228 2.728C95.8828 2.376 96.0961 2.06667 96.3628 1.8C96.6401 1.53333 96.9548 1.32533 97.3068 1.176C97.6588 1.02667 98.0374 0.952 98.4427 0.952C98.8588 0.952 99.2481 1.02667 99.6108 1.176C99.9841 1.32533 100.309 1.53333 100.587 1.8C100.864 2.06667 101.083 2.376 101.243 2.728C101.403 3.08 101.483 3.45867 101.483 3.864ZM109.07 10.968C109.582 10.072 110.169 9.368 110.83 8.856C111.502 8.344 112.27 8.088 113.134 8.088C113.881 8.088 114.489 8.264 114.958 8.616L114.638 12.264C114.585 12.4987 114.494 12.6587 114.366 12.744C114.249 12.8293 114.083 12.872 113.87 12.872C113.785 12.872 113.673 12.8667 113.534 12.856C113.395 12.8453 113.251 12.8347 113.102 12.824C112.953 12.8027 112.798 12.7867 112.638 12.776C112.489 12.7547 112.35 12.744 112.222 12.744C111.497 12.744 110.915 12.936 110.478 13.32C110.051 13.704 109.689 14.2373 109.39 14.92V25H104.43V8.408H107.374C107.619 8.408 107.822 8.42933 107.982 8.472C108.153 8.51467 108.291 8.584 108.398 8.68C108.515 8.76533 108.601 8.88267 108.654 9.032C108.718 9.18133 108.771 9.36267 108.814 9.576L109.07 10.968ZM124.016 8.152C125.274 8.152 126.421 8.34933 127.456 8.744C128.49 9.13867 129.376 9.704 130.112 10.44C130.858 11.176 131.434 12.072 131.84 13.128C132.256 14.1733 132.464 15.352 132.464 16.664C132.464 17.9867 132.256 19.1813 131.84 20.248C131.434 21.304 130.858 22.2053 130.112 22.952C129.376 23.688 128.49 24.2587 127.456 24.664C126.421 25.0587 125.274 25.256 124.016 25.256C122.746 25.256 121.589 25.0587 120.544 24.664C119.509 24.2587 118.613 23.688 117.856 22.952C117.109 22.2053 116.528 21.304 116.112 20.248C115.706 19.1813 115.504 17.9867 115.504 16.664C115.504 15.352 115.706 14.1733 116.112 13.128C116.528 12.072 117.109 11.176 117.856 10.44C118.613 9.704 119.509 9.13867 120.544 8.744C121.589 8.34933 122.746 8.152 124.016 8.152ZM124.016 21.576C125.157 21.576 125.994 21.176 126.528 20.376C127.072 19.5653 127.344 18.3387 127.344 16.696C127.344 15.0533 127.072 13.832 126.528 13.032C125.994 12.232 125.157 11.832 124.016 11.832C122.842 11.832 121.984 12.232 121.44 13.032C120.896 13.832 120.624 15.0533 120.624 16.696C120.624 18.3387 120.896 19.5653 121.44 20.376C121.984 21.176 122.842 21.576 124.016 21.576Z" fill="#1A1A0F"/>
</svg>
