<svg width="44" height="45" viewBox="0 0 44 45" fill="none" xmlns="http://www.w3.org/2000/svg">
<path d="M34.9706 0.970581H9.85291C4.89935 0.970581 0.882324 4.98761 0.882324 9.94117V35.0588C0.882324 40.0124 4.89935 44.0294 9.85291 44.0294H34.9706C39.9259 44.0294 43.9411 40.0124 43.9411 35.0588V9.94117C43.9411 4.98761 39.9259 0.970581 34.9706 0.970581ZM15.2353 35.0588H9.85291V15.3235H15.2353V35.0588ZM12.5441 13.0486C10.811 13.0486 9.40438 11.6312 9.40438 9.88376C9.40438 8.13629 10.811 6.71893 12.5441 6.71893C14.2772 6.71893 15.6838 8.13629 15.6838 9.88376C15.6838 11.6312 14.279 13.0486 12.5441 13.0486ZM36.7647 35.0588H31.3823V25.0046C31.3823 18.962 24.2059 19.4195 24.2059 25.0046V35.0588H18.8235V15.3235H24.2059V18.4901C26.7104 13.8506 36.7647 13.5079 36.7647 22.9324V35.0588Z" fill="#4D4D2C"/>
</svg>
