<svg width="60" height="60" viewBox="0 0 60 60" fill="none" xmlns="http://www.w3.org/2000/svg">
<path d="M10.2939 50.5883C8.91895 50.5883 7.74186 50.0987 6.7627 49.1195C5.78353 48.1403 5.29395 46.9633 5.29395 45.5883V15.5883C5.29395 14.2133 5.78353 13.0362 6.7627 12.057C7.74186 11.0778 8.91895 10.5883 10.2939 10.5883H50.2939C51.6689 10.5883 52.846 11.0778 53.8252 12.057C54.8044 13.0362 55.2939 14.2133 55.2939 15.5883V45.5883C55.2939 46.9633 54.8044 48.1403 53.8252 49.1195C52.846 50.0987 51.6689 50.5883 50.2939 50.5883H10.2939ZM30.2939 33.0883L50.2939 20.5883V15.5883L30.2939 28.0883L10.2939 15.5883V20.5883L30.2939 33.0883Z" fill="#4D4D2C"/>
</svg>
