<svg width="360" height="360" viewBox="0 0 360 360" fill="none" xmlns="http://www.w3.org/2000/svg">
<g clip-path="url(#clip0_10_178)">
<rect width="360" height="360" transform="matrix(-1 0 0 1 360 0)" fill="#FFFFEE"/>
<path d="M180.003 360C184.107 360 188.2 359.861 192.16 359.596C196.252 359.325 200.351 358.909 204.351 358.361C206.112 358.124 207.705 357.887 209.223 357.639C213.731 356.906 218.321 355.976 222.858 354.868C224.41 354.493 225.934 354.1 227.378 353.696C227.886 353.564 228.405 353.419 228.919 353.275C231.112 352.657 233.237 352.016 235.222 351.37C235.349 351.335 235.499 351.283 235.649 351.237C237.445 350.66 239.315 350.019 241.203 349.332C242.796 348.755 244.412 348.143 246.144 347.462C249.752 346.042 253.365 344.472 256.886 342.803C258.353 342.116 259.882 341.36 261.568 340.506C261.868 340.356 262.174 340.2 262.474 340.044L262.821 339.865C282.609 329.59 300.151 315.88 314.952 299.122C343.999 266.229 360 223.921 360 179.997C360 131.917 341.274 86.711 307.28 52.7159C273.286 18.7207 228.082 0 180.003 0C131.924 0 86.7198 18.7207 52.7199 52.7159C18.7201 86.711 0 131.917 0 179.997C0 208.248 6.36127 235.293 18.899 260.381C30.8596 284.303 48.3675 305.656 69.5409 322.126C74.5168 326.005 79.7582 329.653 85.1151 332.978C90.5469 336.361 96.2444 339.496 102.051 342.29C103.344 342.913 104.73 343.56 106.415 344.316L106.577 344.385C106.785 344.477 106.993 344.57 107.201 344.656C108.459 345.216 109.74 345.765 111.005 346.284L111.576 346.527C111.934 346.677 112.269 346.815 112.604 346.942C116.892 348.674 121.216 350.233 125.453 351.566C125.788 351.682 126.128 351.785 126.475 351.889L126.775 351.982C130.296 353.073 134.002 354.089 137.771 354.995C151.504 358.309 165.716 359.988 180.003 359.988L180.003 360ZM180.003 1.15453C227.776 1.15453 272.686 19.754 306.466 53.5356C340.241 87.3114 358.846 132.223 358.846 179.997C358.846 223.644 342.948 265.675 314.08 298.354C299.372 315.002 281.945 328.626 262.284 338.832L261.937 339.011C261.643 339.167 261.343 339.317 261.043 339.467C259.363 340.321 257.845 341.071 256.39 341.753C252.892 343.409 249.301 344.968 245.717 346.377C243.996 347.058 242.392 347.664 240.81 348.235C238.934 348.916 237.075 349.551 235.286 350.129C235.147 350.175 235.014 350.215 234.882 350.256C232.89 350.902 230.789 351.537 228.607 352.155C228.105 352.299 227.591 352.444 227.083 352.576C225.64 352.975 224.133 353.367 222.592 353.742C218.078 354.845 213.524 355.774 209.038 356.496C207.532 356.744 205.95 356.981 204.201 357.218C200.23 357.76 196.154 358.176 192.09 358.441C188.154 358.707 184.09 358.845 180.014 358.845C165.814 358.845 151.7 357.177 138.049 353.887C134.302 352.986 130.625 351.976 127.115 350.891L126.815 350.798C126.481 350.694 126.152 350.596 125.817 350.481C121.597 349.153 117.297 347.606 113.031 345.88C112.696 345.747 112.373 345.615 112.049 345.482L111.339 345.187C110.121 344.685 108.886 344.154 107.662 343.611C107.449 343.519 107.252 343.432 107.05 343.34L106.889 343.271C105.215 342.515 103.835 341.874 102.554 341.256C96.7812 338.48 91.1183 335.368 85.7211 332.003C80.3989 328.701 75.1921 325.07 70.2451 321.219C49.2102 304.848 31.812 283.634 19.9265 259.868C7.46951 234.947 1.14871 208.075 1.14871 180.003C1.14871 132.228 19.7534 87.3172 53.5338 53.5414C87.3143 19.754 132.23 1.15453 180.003 1.15453Z" fill="#1A1A0F" fill-opacity="0.2"/>
<path d="M201.852 245.99L158.114 256.467L163.188 195.173L201.817 198.371L201.852 245.99Z" fill="#89897D"/>
<path d="M170.565 212.722C147.05 212.722 127.987 193.659 127.987 170.143C127.987 146.627 147.05 127.564 170.565 127.564C194.08 127.564 213.143 146.627 213.143 170.143C213.143 193.659 194.08 212.722 170.565 212.722Z" fill="#89897D"/>
<path d="M125.627 351.024C125.967 351.139 126.302 351.243 126.643 351.347C126.741 351.376 126.839 351.41 126.937 351.439C130.545 352.559 134.205 353.558 137.905 354.447C151.406 357.702 165.509 359.423 180.003 359.423C184.079 359.423 188.119 359.29 192.12 359.019C196.212 358.747 200.265 358.337 204.271 357.789C205.899 357.57 207.515 357.333 209.125 357.067C213.715 356.323 218.252 355.393 222.72 354.302C224.226 353.939 225.727 353.552 227.222 353.136C227.736 353.004 228.25 352.859 228.758 352.715C230.865 352.12 232.96 351.491 235.038 350.816C235.177 350.775 235.321 350.729 235.459 350.683C237.318 350.083 239.165 349.448 241.001 348.784C242.652 348.189 244.291 347.566 245.925 346.919C249.556 345.488 253.123 343.941 256.633 342.278L255.282 336.159L250.601 314.962L240.435 268.908L230.16 222.368L203.162 223.119H203.151L201.835 223.159L160.775 224.302L142.811 224.805L125.627 351.024Z" fill="#1A1A0F"/>
<path d="M85.4151 332.488C90.8528 335.876 96.4925 338.976 102.3 341.77C103.737 342.463 105.192 343.132 106.652 343.79C106.912 343.906 107.166 344.021 107.426 344.131C108.684 344.691 109.948 345.234 111.224 345.759L111.795 346.001C112.13 346.14 112.465 346.278 112.806 346.411C117.002 348.108 121.274 349.655 125.62 351.024C125.961 351.139 126.296 351.243 126.636 351.347L164.296 254.984L166.842 248.478L173.942 230.3L176.297 224.279L160.752 224.522L142.805 224.804C126.515 226.888 113.008 238.416 108.384 254.17L85.4094 332.488L85.4151 332.488Z" fill="#1A1A0F"/>
<path d="M200.432 189.597C198.92 189.343 197.407 189.083 195.895 188.829C195.537 180.742 194.758 171.719 188.702 166.345C185.366 163.383 180.54 161.657 178.883 157.513C177.51 154.078 178.791 149.858 176.875 146.695C174.86 143.364 170.358 142.769 166.467 142.527C160.377 142.152 154.177 141.782 148.249 143.225C142.321 144.674 136.6 148.242 134.072 153.795C133.292 155.504 132.842 157.345 132.392 159.169C130.874 165.34 128.548 177.082 128.548 177.082C128.548 177.082 128.097 174.652 126.816 169.924C124.201 166.183 121.009 162.731 119.473 158.436C117.626 153.264 118.44 147.486 120.252 142.307C124.368 130.526 133.916 120.568 145.807 116.781C157.704 113 168.955 110.858 177.844 119.621C179.513 121.266 181.013 123.102 182.918 124.464C186.44 126.987 190.936 127.622 194.908 129.365C203.745 133.244 211.735 142.573 213.726 152.017C215.718 161.461 214.679 171.246 213.628 180.846C212.722 189.124 208.791 198.354 201.898 203.03C201.615 198.793 201.333 194.562 201.05 190.324L200.438 189.603H200.432V189.597Z" fill="#3C3C2F"/>
<path d="M176.862 229.405L177.278 230.086L188.904 249.09L206.14 277.284L209.633 282.993L222.367 303.821C222.367 303.821 226.5 309.634 233.473 317.086L233.496 317.109C236.03 319.811 238.934 322.726 242.149 325.653C242.172 325.682 242.195 325.705 242.224 325.722C246.149 329.301 250.536 332.897 255.281 336.159C257.232 337.504 259.241 338.785 261.296 339.986C261.718 339.778 262.133 339.559 262.549 339.345C282.302 329.087 299.908 315.268 314.513 298.735C299.268 274.386 269.101 247.081 249.665 230.82C238.668 221.612 223.977 218.143 210.031 221.479L203.162 223.119L201.834 223.436L176.862 229.405Z" fill="#1A1A0F"/>
<path d="M122.624 223.546C130.111 220.85 149.928 220.839 158.818 223.84C160.544 224.423 161.589 226.178 161.288 227.974L160.936 230.104C161.71 229.988 162.466 229.769 163.182 229.44C165.3 228.47 169.474 227.154 173.688 229.255C176.632 230.721 178.704 233.487 179.431 236.702C181.169 244.391 176.788 248.646 176.788 248.646L170.952 254.124C166.062 258.707 160.729 262.794 155.031 266.316L154.916 266.385L156.994 253.881C158.166 255.942 160.815 256.618 162.83 255.371C167.921 252.219 176.239 245.903 175.229 238.734C174.525 233.735 171.748 232.673 169.081 232.898C166.097 233.152 163.494 235.028 162.218 237.735C161.912 238.382 161.41 238.913 160.786 239.259L159.285 240.079L154.887 266.581C154.691 267.77 153.929 268.798 152.849 269.329C142.505 274.403 131.341 271.771 127.479 270.587C126.596 270.316 125.84 269.733 125.366 268.936L124.535 267.557C124.247 267.083 124.073 266.547 124.016 265.998L120.177 227.425C120.01 225.722 121.02 224.129 122.63 223.546L122.624 223.546Z" fill="#3C3C2F"/>
<path d="M140.548 227.235C130.942 227.235 123.156 226.501 123.156 225.595C123.156 224.69 130.942 223.956 140.548 223.956C150.154 223.956 157.94 224.69 157.94 225.595C157.94 226.501 150.154 227.235 140.548 227.235Z" fill="#FDFD96"/>
<path d="M175.293 258.453C165.855 251.232 162.12 240.373 166.951 234.202C171.777 228.031 183.339 228.88 192.783 236.107C196.593 238.942 199.641 242.671 201.655 246.983L241.231 278.092L225.519 296.888L188.171 264.22C183.443 263.372 179.027 261.392 175.298 258.453H175.293Z" fill="#808074"/>
<path d="M201.476 285.481L217.131 257.945L274.1 284.753L242.224 325.728L201.476 285.481Z" fill="#1A1A0F"/>
<path opacity="0.1" d="M235.621 266.645C235.621 266.645 277.148 297.049 275.613 296.882C274.077 296.714 253.602 285.452 253.602 285.452L235.621 266.645Z" fill="#272223"/>
</g>
<defs>
<clipPath id="clip0_10_178">
<rect width="360" height="360" fill="white" transform="matrix(-1 0 0 1 360 0)"/>
</clipPath>
</defs>
</svg>
